<svg id="visual" viewBox="0 0 700 700" width="700" height="700" xmlns="http://www.w3.org/2000/svg" xmlns:xlink="http://www.w3.org/1999/xlink" version="1.1"><g transform="translate(337.49733836978794 348.69901682658536)"><path d="M223.4 -308.9C275.5 -269.8 293.8 -185.6 312.1 -106.7C330.4 -27.8 348.8 45.7 329 107C309.2 168.2 251.3 217.2 190.1 259.7C128.9 302.1 64.5 338.1 -3.6 343C-71.7 348 -143.4 322.1 -196.5 277C-249.6 231.9 -284.1 167.7 -300.6 101.4C-317 35 -315.4 -33.5 -302.5 -106C-289.6 -178.5 -265.3 -255.1 -213 -294.1C-160.7 -333.1 -80.3 -334.6 2.7 -338.3C85.7 -342 171.4 -348 223.4 -308.9" fill="#E90008"></path></g></svg>