<svg width="58" height="45" viewBox="0 0 58 45" fill="none" xmlns="http://www.w3.org/2000/svg">
<path d="M18 9.99993L27.5 16.9999C31.6825 11.1936 35.5203 6.13777 38 3.49999C40.0355 1.24983 41.3173 1.02965 44 0.499939C49.6832 0.920649 55.2678 4.61185 56.5 6.49994C58.2732 9.98693 57.2183 13.8451 57 15.4999C56.7817 17.1548 52.6608 25.5046 47 30.9999C39.1292 38.0351 32.1619 43.1726 29.5 44.4999C15.5677 33.9516 5.57353 22.4449 2.50001 17.4999C1.46523 15.7978 0.326832 12.8356 1.00004 11.4999C4.62867 6.13363 9.65456 5.50669 18 9.99993Z" fill="#FA0006"/>
</svg>
