<svg width="200" height="200" viewBox="0 0 200 200" fill="none" xmlns="http://www.w3.org/2000/svg">
<path d="M20 178L25.9615 131.362H85.5769V114.5C47.9412 94.3966 59.87 53.9025 95.5 49C113.385 49 133.713 58.5918 137.5 74C138.748 90.6401 129.424 109.989 109 112.506V128H173L176 177.5" stroke="black" stroke-width="6"/>
<path d="M74 77.5C74.1772 85.1317 80.6591 93.167 85.5 96C85.4875 96.0904 92.2123 100.286 100.5 99.5C100.889 99.4238 105.571 99.3092 113 92.5C119.985 85.7801 122.226 79.0336 122 72" stroke="black" stroke-width="6"/>
<path d="M40 102.5C28.8 102.5 16.6667 102 12 102M43 81L15.5 74M50 61L26 44M66.5 44.5L54 25M85.5 39.5L84.5 20.5M110.5 37.5L109 20.5M132 46.5L149 27.5M147 65L164 53.5M158 83L181 73.5M162 101L185.5 100" stroke="#FA0006" stroke-width="9"/>
<path d="M94 70C94 72.2091 93.1046 74 92 74C90.8954 74 90 72.2091 90 70C90 67.7909 90.8954 66 92 66C93.1046 66 94 67.7909 94 70Z" fill="black"/>
<path d="M104 71C104 73.2091 103.105 75 102 75C100.895 75 100 73.2091 100 71C100 68.7909 100.895 67 102 67C103.105 67 104 68.7909 104 71Z" fill="black"/>
<path d="M88 149L97.5 156C101.683 150.194 105.52 145.138 108 142.5C110.036 140.25 111.317 140.03 114 139.5C119.683 139.921 125.268 143.612 126.5 145.5C128.273 148.987 127.218 152.845 127 154.5C126.782 156.155 122.661 164.505 117 170C109.129 177.035 102.162 182.173 99.5 183.5C85.5677 172.952 75.5735 161.445 72.5 156.5C71.4652 154.798 70.3268 151.836 71 150.5C74.6287 145.134 79.6546 144.507 88 149Z" fill="#FA0006"/>
</svg>
