<?xml version="1.0" standalone="no"?>
<!DOCTYPE svg PUBLIC "-//W3C//DTD SVG 20010904//EN"
 "http://www.w3.org/TR/2001/REC-SVG-20010904/DTD/svg10.dtd">
<svg version="1.0" xmlns="http://www.w3.org/2000/svg"
 width="700.000000pt" height="700.000000pt" viewBox="0 0 700.000000 700.000000"
 preserveAspectRatio="xMidYMid meet">
<metadata>
Created by potrace 1.14, written by Peter Selinger 2001-2017
</metadata>
<g transform="translate(0.000000,700.000000) scale(0.100000,-0.100000)"
fill="#000000" stroke="none">
<path d="M3790 6284 c-69 -7 -127 -13 -130 -13 -7 -1 45 -589 52 -596 5 -6
306 19 312 26 2 2 -8 138 -22 302 l-26 297 -31 -1 c-16 -1 -86 -7 -155 -15z"/>
<path d="M2873 6283 l-73 -4 0 -52 c0 -29 7 -167 15 -307 8 -140 15 -268 15
-284 l0 -29 157 7 c87 4 159 9 162 11 4 5 -11 344 -26 568 l-6 97 -86 -2 c-47
-1 -119 -4 -158 -5z"/>
<path d="M1890 6130 c-69 -45 -126 -86 -127 -93 -3 -21 422 -672 438 -671 27
2 260 157 255 169 -9 24 -429 675 -435 675 -3 0 -62 -36 -131 -80z"/>
<path d="M4794 5809 c-285 -318 -296 -332 -278 -348 144 -132 215 -192 223
-189 13 4 591 650 591 660 0 9 -222 208 -232 208 -4 0 -140 -149 -304 -331z"/>
<path d="M910 5467 c-47 -67 -86 -126 -87 -132 -3 -12 812 -590 832 -590 12 0
185 230 185 247 0 7 -814 587 -834 594 -6 2 -49 -52 -96 -119z"/>
<path d="M3194 5369 c-477 -100 -863 -402 -1030 -806 -52 -125 -75 -231 -81
-379 -10 -221 29 -392 134 -595 122 -237 334 -455 603 -621 l70 -43 0 -207 0
-208 -1040 0 c-825 0 -1040 -3 -1040 -12 0 -7 -49 -395 -109 -863 -60 -467
-108 -851 -107 -853 3 -2 210 -30 213 -28 0 0 45 346 99 769 l98 767 1048 0
1048 0 0 385 0 384 -67 38 c-314 174 -554 415 -656 657 -56 133 -69 192 -74
343 -5 123 -3 156 16 235 84 362 371 653 771 782 171 56 250 67 382 56 322
-28 599 -120 838 -278 162 -108 284 -243 358 -399 37 -78 37 -78 36 -203 -3
-322 -114 -613 -316 -825 -156 -165 -332 -255 -568 -290 -52 -8 -98 -15 -102
-15 -5 0 -8 -169 -8 -375 l0 -375 1119 0 1120 0 5 -42 c3 -24 24 -353 46 -733
22 -379 43 -728 47 -774 l6 -84 106 7 c58 4 106 8 108 9 1 2 -22 403 -52 892
-30 490 -55 902 -55 918 l0 27 -1120 0 -1120 0 0 168 0 168 96 27 c541 152
905 678 905 1306 0 119 -3 145 -25 210 -52 150 -151 298 -283 421 -81 76 -247
192 -347 242 -345 174 -792 256 -1072 197z"/>
<path d="M5353 5062 c-213 -143 -292 -201 -289 -213 2 -9 40 -71 86 -138 55
-81 86 -119 94 -114 28 17 572 386 580 393 7 7 -162 271 -174 269 -3 0 -137
-89 -297 -197z"/>
<path d="M3174 4663 c-26 -40 -32 -159 -9 -206 28 -60 81 -61 109 -3 18 37 22
140 7 179 -23 61 -76 76 -107 30z"/>
<path d="M3531 4635 c-26 -34 -35 -80 -29 -151 8 -98 67 -141 112 -81 31 41
31 183 0 224 -28 38 -57 40 -83 8z"/>
<path d="M576 4552 c-22 -76 -77 -294 -74 -296 9 -8 961 -246 965 -242 3 2 22
72 43 155 33 133 36 151 21 155 -9 3 -196 51 -416 106 -220 56 -430 110 -467
120 -62 17 -67 17 -72 2z"/>
<path d="M5862 4407 c-319 -132 -392 -165 -388 -179 10 -41 112 -278 119 -278
11 0 790 321 799 329 10 9 -108 286 -123 288 -8 2 -191 -70 -407 -160z"/>
<path d="M4233 4483 l-73 -4 0 -62 c-1 -196 -98 -395 -276 -567 -137 -132
-270 -208 -390 -225 -111 -15 -317 34 -433 102 -163 96 -324 322 -354 497
l-11 66 -109 0 -110 0 7 -52 c19 -143 92 -316 185 -439 66 -87 203 -215 275
-258 150 -90 335 -135 524 -129 114 4 135 7 208 36 165 66 370 229 495 395 76
100 152 254 179 362 11 44 23 126 27 183 l6 102 -39 -2 c-21 -1 -72 -4 -111
-5z"/>
<path d="M6002 3642 l-344 -15 7 -156 c4 -86 10 -159 14 -162 4 -4 597 18 809
30 14 1 16 70 5 224 l-6 97 -71 -2 c-39 0 -225 -8 -414 -16z"/>
<path d="M420 3432 l0 -159 178 -7 c97 -3 318 -9 490 -12 l312 -7 0 161 0 160
-112 6 c-62 3 -283 8 -490 11 l-378 6 0 -159z"/>
<path d="M3912 2103 c-34 -10 -71 -32 -104 -62 -56 -50 -199 -225 -318 -389
-41 -56 -80 -100 -86 -98 -6 2 -83 57 -170 122 -216 160 -341 215 -485 213
-75 -1 -111 -12 -172 -55 -69 -49 -102 -99 -100 -151 5 -122 196 -379 499
-673 196 -189 481 -430 508 -430 52 0 508 359 662 522 126 133 277 382 305
503 15 68 15 200 0 255 -23 80 -138 167 -293 222 -103 36 -177 43 -246 21z"/>
</g>
</svg>
